<?xml version="1.0" encoding="UTF-8" standalone="no"?>
<!-- Created with Inkscape (http://www.inkscape.org/) -->

<svg
   version="1.1"
   id="svg1"
   width="500"
   height="500"
   viewBox="0 0 500 500"
   sodipodi:docname="ethyrlogo.png"
   inkscape:version="1.4.2 (ebf0e940, 2025-05-08)"
   inkscape:dataloss="true"
   xmlns:inkscape="http://www.inkscape.org/namespaces/inkscape"
   xmlns:sodipodi="http://sodipodi.sourceforge.net/DTD/sodipodi-0.dtd"
   xmlns="http://www.w3.org/2000/svg"
   xmlns:svg="http://www.w3.org/2000/svg">
  <defs
     id="defs1" />
  <sodipodi:namedview
     id="namedview1"
     pagecolor="#ffffff"
     bordercolor="#000000"
     borderopacity="0.25"
     inkscape:showpageshadow="2"
     inkscape:pageopacity="0.0"
     inkscape:pagecheckerboard="0"
     inkscape:deskcolor="#d1d1d1"
     inkscape:zoom="1.59"
     inkscape:cx="250"
     inkscape:cy="250"
     inkscape:window-width="1920"
     inkscape:window-height="1080"
     inkscape:window-x="0"
     inkscape:window-y="0"
     inkscape:window-maximized="0"
     inkscape:current-layer="g1">
    <inkscape:page
       x="0"
       y="0"
       width="500"
       height="500"
       id="page2"
       margin="0"
       bleed="0" />
  </sodipodi:namedview>
  <g
     inkscape:groupmode="layer"
     inkscape:label="Image"
     id="g1">
    <path
       style="fill:#000000"
       d="M 230.87108,406.66637 C 203.74819,389.4482 190.92519,379.83813 176.14831,365.65492 143.7701,334.57754 127.3239,303.07282 120.78664,259.60286 c -1.94344,-12.92303 -2.09031,-119.9088 -0.16556,-120.59654 0.6875,-0.24566 2.825,-0.64412 4.75,-0.88548 21.24144,-2.66324 60.79823,-15.00326 82,-25.58049 12.4437,-6.20796 32.30111,-18.468584 36.15713,-22.324614 2.95476,-2.95475 5.71634,-3.837015 8.09287,-2.58549 1.2375,0.651688 2.475,1.513294 2.75,1.91468 0.81148,1.18442 22.94189,15.377404 30,19.240014 20.45482,11.19406 51.6214,21.69944 83.5,28.1455 11,2.22427 11,2.22427 11.32323,57.65478 0.31605,54.19904 0.019,61.86039 -2.98235,76.93051 -9.92434,49.83047 -41.93848,92.89423 -93.84088,126.22989 -14.30757,9.1894 -32.20186,19.77171 -33.38199,19.7414 -0.61491,-0.0158 -8.76801,-4.88508 -18.11801,-10.82065 z m 25.86919,-11.84374 c 13.82405,-8.32737 31.72488,-20.54118 41.13081,-28.06371 30.9614,-24.76183 53.5313,-58.01164 61.5963,-90.74319 4.03837,-16.3896 4.65098,-26.67719 4.52436,-75.97698 -0.12066,-46.97699 -0.12066,-46.97699 -8.12066,-48.77086 -35.21583,-7.89657 -74.85711,-23.71425 -97.66548,-38.97052 -9.00118,-6.02079 -9.00118,-6.02079 -16.12594,-1.15121 -7.96037,5.44068 -8.07459,5.5054 -22.70858,12.86581 -22.84817,11.49188 -41.85383,18.49915 -67.83027,25.00861 -16.33027,4.09222 -16.33027,4.09222 -16.26523,54.16087 0.0371,28.52685 0.50843,53.24508 1.09557,57.45147 5.9487,42.61762 29.83554,79.6953 71.61491,111.16222 12.04409,9.07124 39.28521,26.72059 41.24224,26.72059 0.75964,0 4.14003,-1.66189 7.51197,-3.6931 z m -16.69383,-33.07237 c -4.85355,-7.55399 -14.75832,-22.50953 -22.0106,-33.23453 -7.25229,-10.725 -20.25767,-29.9625 -28.90085,-42.75 -8.64318,-12.7875 -15.47621,-23.25 -15.18452,-23.25 0.29169,0 3.09316,1.72693 6.22548,3.83761 3.13232,2.11069 10.64513,6.89247 16.69513,10.62619 6.05,3.73371 13.925,8.6842 17.5,11.00109 3.575,2.31688 9.2,5.89239 12.5,7.94558 3.3,2.05319 9.7739,6.12579 14.38644,9.05023 8.38644,5.31716 8.38644,5.31716 21,-2.92994 6.93746,-4.5359 18.46356,-11.97472 25.61356,-16.53071 7.15,-4.55598 16.6,-10.6057 21,-13.44381 12.23485,-7.89179 15.5,-9.78534 15.5,-8.98889 0,1.0827 -74.1843,112.43528 -74.89355,112.41718 -0.33354,-0.009 -4.57753,-6.19601 -9.43109,-13.75 z m -0.17536,-75.8522 c -4.95,-3.07576 -21.7125,-13.25965 -37.25,-22.63086 -15.5375,-9.37121 -28.25,-17.47808 -28.25,-18.01528 0,-1.02468 1.01001,-2.70079 11.89276,-19.73619 3.68925,-5.775 8.16135,-12.975 9.938,-16 1.77665,-3.025 5.57904,-9.21232 8.44976,-13.74961 9.25443,-14.627 19.20967,-30.66583 19.57558,-31.53809 0.19585,-0.46688 2.98656,-4.98064 6.20157,-10.03058 3.21501,-5.04995 8.19906,-13.00672 11.07566,-17.68172 2.87661,-4.675 5.97252,-9.47671 6.8798,-10.67047 1.64961,-2.17048 1.64961,-2.17048 3.47834,1 1.0058,1.74376 5.73821,9.47047 10.51646,17.17047 4.77826,7.7 13.98754,22.55 20.46508,33 6.47753,10.45 13.46219,21.7 15.52146,25 2.05928,3.3 6.64919,10.725 10.19982,16.5 3.55062,5.775 8.55944,13.91277 11.1307,18.08394 2.57126,4.17116 4.67501,8.0659 4.67501,8.65497 0,0.58908 -2.1375,2.30745 -4.75,3.8186 -2.6125,1.51115 -19.0566,11.47537 -36.54246,22.1427 -17.48585,10.66733 -32.33585,19.59299 -33,19.83479 -0.66414,0.2418 -5.25754,-2.0769 -10.20754,-5.15267 z"
       id="path1" />
  </g>
</svg>
